# xmcd CD database file
#
# Track frame offsets:
#	150
#	30995
#	61650
#	106687
#	145687
#	184885
#	210050
#	236875
#	267082
#
# Disc length: 3896 seconds
#
# Revision: 0
# Processed by: cddbd v1.5.1PL0 Copyright (c) Steve Scherf et al.
# Submitted via: CDex 1.51
#
DISCID=6a0f3609
DTITLE=Art Pepper and The Hollywood All Stars - Art Standards
DYEAR=1979
DGENRE=Jazz
TTITLE0=Begin The Beguine
TTITLE1=You'd Be So Nice To Come Home To
TTITLE2=Night And Day
TTITLE3=Bernie's Tune
TTITLE4=How High The Moon
TTITLE5=My Funny Valentine
TTITLE6=Imagination
TTITLE7='s Wonderful
TTITLE8=The Shadow Of Your Smile
EXTD=YEAR: 1979
EXTT0=
EXTT1=
EXTT2=
EXTT3=
EXTT4=
EXTT5=
EXTT6=
EXTT7=
EXTT8=
PLAYORDER=
